<svg width="817" height="342" viewBox="0 0 817 342" fill="none" xmlns="http://www.w3.org/2000/svg">
<path d="M0 276.696V221.711L127.047 4.51485H170.733V80.6223H144.878L64.7864 218.164V220.744H245.327V276.696H0ZM146.067 334.744V259.926L147.255 235.578V4.51485H207.584V334.744H146.067Z" fill="#D900B6" fill-opacity="0.05"/>
<path d="M407.516 342C381.958 341.892 359.966 335.066 341.54 321.522C323.214 307.977 309.098 288.359 299.191 262.668C289.384 236.976 284.53 206.071 284.629 169.952C284.629 133.941 289.533 103.25 299.34 77.8812C309.246 52.512 323.363 33.2164 341.689 19.9944C360.114 6.66479 382.057 0 407.516 0C432.974 0 454.867 6.66479 473.194 19.9944C491.619 33.3239 505.785 52.6733 515.691 78.0424C525.597 103.304 530.501 133.941 530.402 169.952C530.402 206.178 525.449 237.137 515.542 262.829C505.735 288.521 491.669 308.139 473.342 321.683C455.016 335.228 433.073 342 407.516 342ZM407.516 284.113C424.95 284.113 438.869 274.6 449.27 255.573C459.672 236.546 464.823 208.006 464.724 169.952C464.724 144.905 462.346 124.051 457.591 107.389C452.935 90.727 446.298 78.2037 437.68 69.8189C429.161 61.4342 419.106 57.2419 407.516 57.2419C390.18 57.2419 376.311 66.6478 365.91 85.4597C355.508 104.272 350.258 132.436 350.159 169.952C350.159 195.321 352.487 216.498 357.143 233.482C361.898 250.359 368.584 263.044 377.203 271.536C385.821 279.921 395.925 284.113 407.516 284.113Z" fill="#D900B6" fill-opacity="0.05"/>
<path d="M571.673 276.696V221.711L698.72 4.51485H742.406V80.6223H716.551L636.46 218.164V220.744H817V276.696H571.673ZM717.74 334.744V259.926L718.929 235.578V4.51485H779.257V334.744H717.74Z" fill="#D900B6" fill-opacity="0.05"/>
</svg>
